# xmcd
#
# Track frame offsets:
#	150
#	43950
#	79255
#	110887
#	145471
#	178233
#	209470
#	239219
#	275876
#
# Disc length: 4139 seconds
#
# Revision: 1
# Processed by: cddbd v1.5.2PL0 Copyright (c) Steve Scherf et al.
# Submitted via: audiograbber 1.83.01
#
DISCID=9e102909
DTITLE=Laughing Buddha - Sacred Technology
DYEAR=1900
DGENRE=Psytrance
TTITLE0=Sacred Technology
TTITLE1=The Acid Test
TTITLE2=Tube-O-Tron
TTITLE3=Freaking Out
TTITLE4=Audio Rodeo
TTITLE5=We Are Not Alone
TTITLE6=Reefer (Part 2)
TTITLE7=The Pill
TTITLE8=Space Race
EXTD=
EXTT0=
EXTT1=
EXTT2=
EXTT3=
EXTT4=
EXTT5=
EXTT6=
EXTT7=
EXTT8=
PLAYORDER=
